<svg viewBox="0 -53 512.00054 512" xmlns="http://www.w3.org/2000/svg">
            <path d="m317.121094 79.179688c1.238281.523437 2.550781.78125 3.878906.78125 4.03125 0 7.648438-2.402344 9.21875-6.121094 2.132812-5.089844-.257812-10.960938-5.339844-13.097656-1.238281-.523438-2.539062-.78125-3.878906-.78125-4.03125 0-7.648438 2.398437-9.21875 6.121093-2.132812 5.089844.257812 10.957031 5.339844 13.097657zm0 0" />
            <path d="m511.648438 261.617188-12.480469-45.765626c8.515625-21.199218 12.832031-43.335937 12.832031-65.851562 0-2.652344-1.054688-5.199219-2.933594-7.074219-2.949218-2.945312-4.804687-2.957031-12.609375-3.011719-3.640625-.023437-8.960937-.046874-15.722656-.0625-9.234375-.027343-21.164063-.042968-35.175781-.058593-3.082032-36.679688-22.734375-70.699219-56.140625-96.679688-35.742188-27.800781-83.125-43.113281-133.417969-43.113281s-97.675781 15.3125-133.417969 43.109375c-33.453125 26.019531-53.113281 60.097656-56.152343 96.835937-34.546876.03125-56.441407.054688-56.441407.054688-5.515625.007812-9.988281 4.480469-9.988281 10 0 22.515625 4.316406 44.652344 12.832031 65.855469l-12.480469 45.761719c-.941406 3.464843.039063 7.164062 2.578126 9.703124 2.539062 2.535157 6.238281 3.519532 9.703124 2.574219l29.71875-8.101562c8.15625 10.109375 17.394532 19.652343 27.566407 28.480469l-7.457031 27.34375c-.941407 3.460937.039062 7.164062 2.578124 9.703124 2.535157 2.535157 6.238282 3.519532 9.699219 2.574219l37.3125-10.171875c9.328125 5.203125 19.117188 9.921875 29.214844 14.074219l4.664063 25.515625c.644531 3.53125 3.128906 6.445312 6.515624 7.636719 3.382813 1.191406 7.148438.476562 9.863282-1.871094l20.546875-17.78125c13.054687 3.183594 26.484375 5.511719 40.054687 6.953125l24.40625 42.710938c1.78125 3.117187 5.09375 5.039062 8.683594 5.039062s6.902344-1.921875 8.683594-5.039062l24.40625-42.710938c13.574218-1.441406 27-3.769531 40.054687-6.953125l20.550781 17.78125c2.710938 2.347656 6.476563 3.0625 9.859376 1.871094 3.386718-1.191407 5.875-4.105469 6.519531-7.636719l4.664062-25.515625c10.097657-4.152344 19.886719-8.871094 29.214844-14.074219l37.308594 10.171875c3.460937.945313 7.164062-.039062 9.703125-2.574219 2.535156-2.539062 3.519531-6.242187 2.574218-9.703124l-7.457031-27.34375c10.175781-8.828126 19.410157-18.371094 27.566407-28.480469l29.722656 8.101562c3.464844.945313 7.164062-.039062 9.703125-2.574219 2.535156-2.539062 3.519531-6.238281 2.574219-9.703124zm-255.648438-241.617188c89.238281 0 162.636719 52.855469 169.476562 119.78125-.191406 0-.375 0-.566406 0-8.632812-.007812-17.988281-.007812-28.039062-.011719-.441406-3.101562-1.082032-6.191406-1.933594-9.25-1.6875-6.078125-4.179688-12.078125-7.417969-17.839843-6.128906-10.9375-14.839843-21.070313-25.898437-30.121094-1.78125-1.457032-4.03125-2.257813-6.332032-2.257813-3.019531 0-5.839843 1.339844-7.75 3.667969-3.488281 4.273438-2.851562 10.582031 1.421876 14.082031 9.117187 7.449219 16.21875 15.660157 21.117187 24.398438 3.167969 5.671875 5.34375 11.46875 6.507813 17.316406-33.808594 0-74.210938.011719-120.789063.039063-61.597656.03125-123.175781.082031-169.289063.121093 6.746094-66.992187 80.1875-119.925781 169.492188-119.925781zm222.972656 197.824219 8.773438 32.171875-19.257813-5.25c-3.941406-1.082032-8.148437.359375-10.613281 3.625-9.433594 12.511718-20.691406 24.167968-33.464844 34.648437-3.046875 2.5-4.339844 6.558594-3.304687 10.359375l4.53125 16.617188-24.40625-6.65625c-2.578125-.703125-5.332031-.34375-7.644531.992187-11.105469 6.433594-22.984376 12.125-35.3125 16.914063-3.238282 1.257812-5.59375 4.101562-6.21875 7.519531l-2.511719 13.734375-11.257813-9.738281c-2.496094-2.160157-5.890625-2.953125-9.085937-2.109375-15.234375 4.003906-31.085938 6.757812-47.113281 8.183594-3.261719.289062-6.171876 2.15625-7.796876 5l-18.289062 32.007812-18.289062-32.007812c-1.625-2.839844-4.535157-4.707032-7.796876-5-16.027343-1.421876-31.878906-4.175782-47.117187-8.183594-.839844-.222656-1.691406-.328125-2.539063-.328125-2.375 0-4.707031.847656-6.546874 2.4375l-11.257813 9.742187-2.507813-13.734375c-.625-3.417969-2.980468-6.265625-6.21875-7.523437-12.328124-4.789063-24.207031-10.476563-35.3125-16.910156-2.3125-1.339844-5.0625-1.699219-7.644531-.996094l-24.410156 6.65625 4.53125-16.613282c1.039063-3.804687-.253906-7.859374-3.300781-10.363281-12.773438-10.476562-24.03125-22.136719-33.46875-34.644531-2.460938-3.269531-6.667969-4.707031-10.613282-3.628906l-19.253906 5.253906 8.773438-32.171875c.589844-2.167969.433594-4.46875-.441406-6.535156-7.019532-16.5625-11.132813-33.777344-12.265626-51.300781 152.851563-.160157 417.183594-.355469 471.367188-.105469-1.125 17.5625-5.238281 34.808593-12.273438 51.40625-.875 2.066406-1.03125 4.367187-.441406 6.53125zm0 0" />
            <path d="m292 179.882812c-4.421875-3.316406-10.6875-2.417968-14 2l-22 29.332032-22-29.332032c-3.3125-4.417968-9.582031-5.3125-14-2s-5.316406 9.582032-2 14c0 0 29.890625 39.851563 30 40 3.902344 5.207032 12.117188 5.175782 16 0l30-40c3.3125-4.417968 2.417969-10.6875-2-14zm0 0" />
            <path d="m196.007812 237.785156c2.101563.027344 4.222657-.578125 5.992188-1.902344 4.417969-3.3125 5.3125-9.582031 2-14l-30-40c-3.3125-4.417968-9.582031-5.3125-14-2s-5.3125 9.582032-2 14c0 0 29.90625 39.878907 30 40 1.847656 2.464844 4.910156 3.867188 8.007812 3.902344zm0 0" />
            <path d="m310 235.878906c1.738281 1.3125 3.820312 2 5.988281 2 3.183594 0 6.101563-1.457031 8.011719-4l6-8c3.308594-4.410156 2.410156-10.6875-2-14-1.75-1.308594-3.820312-2-5.988281-2-3.191407 0-6.113281 1.460938-8.011719 4l-6 8c-1.601562 2.140625-2.28125 4.769532-1.898438 7.421875.378907 2.640625 1.757813 4.980469 3.898438 6.578125zm0 0" />
            <path d="m352 179.878906c-1.75-1.308594-3.820312-2-5.988281-2-3.191407 0-6.113281 1.460938-8.011719 4-3.3125 4.410156-2.410156 10.691406 2 14 1.738281 1.3125 3.808594 2 5.988281 2 3.183594 0 6.101563-1.449218 8.011719-4 3.308594-4.410156 2.410156-10.6875-2-14zm0 0" />
            <path d="m242 259.882812c-4.417969-3.3125-10.6875-2.417968-14 2l-22 29.332032-22-29.332032c-3.3125-4.417968-9.582031-5.3125-14-2s-5.3125 9.582032-2 14l30 40c1.890625 2.519532 4.851562 4 8 4s6.109375-1.480468 8-4l30-40c3.3125-4.417968 2.417969-10.6875-2-14zm0 0" />
            <path d="m342 259.882812c-4.417969-3.3125-10.6875-2.417968-14 2l-22 29.332032-22-29.332032c-3.3125-4.417968-9.582031-5.3125-14-2s-5.3125 9.582032-2 14l30 40c1.886719 2.519532 4.851562 4 8 4 3.144531 0 6.109375-1.480468 8-4l30-40c3.3125-4.417968 2.417969-10.6875-2-14zm0 0" />
            <path d="m422.972656 191.113281c-.78125-5.46875-5.851562-9.265625-11.316406-8.484375s-9.265625 5.847656-8.484375 11.3125l5.1875 36.300782-36.300781-5.1875c-5.464844-.777344-10.53125 3.019531-11.3125 8.484374-.78125 5.464844 3.019531 10.53125 8.484375 11.3125l49.5 7.070313c.472656.070313.945312.101563 1.414062.101563 2.632813 0 5.183594-1.039063 7.070313-2.929688 2.226562-2.222656 3.273437-5.367188 2.828125-8.484375zm0 0" />
            <path d="m139.941406 225.054688-36.296875 5.1875 5.183594-36.300782c.78125-5.464844-3.015625-10.53125-8.484375-11.3125-5.464844-.769531-10.53125 3.019532-11.3125 8.488282l-7.070312 49.496093c-.445313 3.113281.601562 6.257813 2.828124 8.484375 1.886719 1.886719 4.4375 2.929688 7.070313 2.929688.46875 0 .941406-.035156 1.414063-.101563l49.5-7.070312c5.464843-.78125 9.265624-5.847657 8.484374-11.3125-.785156-5.472657-5.851562-9.261719-11.316406-8.488281zm0 0" />
          </svg>