<svg version="1.1" id="Layer_1" xmlns="http://www.w3.org/2000/svg" xmlns:xlink="http://www.w3.org/1999/xlink" x="0px" y="0px" viewBox="0 0 512 512" style="enable-background:new 0 0 512 512;" xml:space="preserve"><g><g><path d="M256,325.818c-38.4,0-69.818,31.418-69.818,69.818c0,38.4,31.418,69.818,69.818,69.818 c38.4,0,69.818-31.418,69.818-69.818C325.818,357.236,294.4,325.818,256,325.818z M256,442.182 c-25.6,0-46.545-20.945-46.545-46.545c0-25.6,20.945-46.545,46.545-46.545c25.6,0,46.545,20.945,46.545,46.545 C302.545,421.236,281.6,442.182,256,442.182z"/></g></g><g><g><path d="M111.709,318.836c2.327-9.309,10.473-16.291,19.782-16.291H256c6.982,0,11.636-4.655,11.636-11.636v-58.182 c103.564-5.818,186.182-93.091,186.182-197.818V11.636C453.818,4.655,449.164,0,442.182,0H69.818 c-6.982,0-11.636,4.655-11.636,11.636v23.273c0,90.764,60.509,168.727,147.782,192c5.818,1.164,12.8-2.327,13.964-8.146 s-2.327-12.8-8.145-13.964c-76.8-20.945-130.327-90.764-130.327-169.891V23.273h349.091v11.636c0,3.491,0,8.145-1.164,11.636 H116.364c-6.982,0-11.636,4.655-11.636,11.636s4.655,11.636,11.636,11.636h310.691C410.764,148.945,339.782,209.455,256,209.455 c-6.982,0-11.636,4.655-11.636,11.636v58.182H130.327c-20.945,0-38.4,15.127-43.055,34.909L59.345,457.309 c-1.164,4.655-1.164,9.309-1.164,13.964C58.182,493.382,76.8,512,98.909,512h314.182c22.109,0,40.727-18.618,40.727-40.727 c0-4.655,0-9.309-1.164-13.964l-29.091-143.127c-3.491-19.782-22.109-34.909-43.055-34.909h-77.964 c-6.982,0-11.636,4.655-11.636,11.636s4.655,11.636,11.636,11.636h79.127c9.309,0,17.455,6.982,19.782,16.291l29.091,143.127 c0,3.491,0,5.818,0,9.309c0,9.309-8.145,17.455-17.455,17.455H98.909c-9.309,0-17.455-8.145-17.455-17.455 c0-3.491,0-6.982,1.164-9.309L111.709,318.836z"/></g></g><g><g><path d="M275.782,375.855c-4.655-4.655-11.636-4.655-16.291,0l-11.636,11.636c-4.655,4.655-4.655,11.636,0,16.291 c2.327,2.327,5.818,3.491,8.145,3.491s5.818-1.164,8.145-3.491l11.636-11.636C280.436,387.491,280.436,380.509,275.782,375.855z" /></g></g></svg>