<svg version="1.1" id="Layer_1" xmlns="http://www.w3.org/2000/svg" xmlns:xlink="http://www.w3.org/1999/xlink" x="0px" y="0px" viewBox="0 0 512 512" style="enable-background:new 0 0 512 512;" xml:space="preserve"><g><g><path d="M309.328,421.344H202.672C196.781,421.344,192,426.11,192,432s4.781,10.656,10.672,10.656h106.656 c5.891,0,10.672-4.766,10.672-10.656S315.219,421.344,309.328,421.344z"/></g></g><g><g><path d="M256,272c-64.797,0-117.328,52.531-117.328,117.344h234.656C373.328,324.531,320.797,272,256,272z M255.999,325.344 c-5.891,0-10.672,4.766-10.672,10.656v32h-82.969c1.344-5.906,3.25-11.656,5.656-17.172c5.031,2.562,11.234,0.781,14.078-4.172 c2.859-4.922,1.297-11.172-3.406-14.25c2.844-3.844,5.984-7.5,9.438-10.953c3.438-3.453,7.094-6.594,10.953-9.453 c3.062,4.719,9.328,6.281,14.25,3.438c4.953-2.859,6.734-9.062,4.156-14.094c8.797-3.844,18.172-6.359,27.875-7.422 C245.672,299.531,250.312,304,256,304s10.328-4.469,10.641-10.078c9.703,1.062,19.078,3.578,27.875,7.422 c-2.578,5.031-0.797,11.234,4.156,14.094c4.922,2.844,11.188,1.297,14.25-3.438c3.859,2.859,7.516,6,10.953,9.453 c3.453,3.453,6.594,7.109,9.437,10.953c-4.719,3.078-6.266,9.328-3.406,14.25c2.844,4.953,9.047,6.734,14.078,4.156 c2.406,5.531,4.312,11.281,5.656,17.188h-82.969v-32C266.671,330.109,261.89,325.344,255.999,325.344z"/></g></g><g><g><path d="M415.109,112c0.578-3.469,0.891-7.031,0.891-10.664c0-35.352-28.656-64-64-64c-14.719,0-28.297,4.977-39.109,13.336 C302.266,30.078,280.781,16,256,16c-31.219,0-57.203,22.352-62.859,51.922c-9.672-5.867-21-9.258-33.141-9.258 c-31.719,0-58.031,23.07-63.109,53.336H0c0,0,0,85.336,64,85.336c20.312,0,59.953,0,106.672,0v44.172 c-51.016,29.508-85.344,84.648-85.344,147.836c0,40.344,14.031,77.438,37.453,106.656h266.438 c23.422-29.219,37.453-66.312,37.453-106.656c0-63.188-34.328-118.328-85.344-147.836v-44.172c46.719,0,86.359,0,106.672,0 c64,0,64-85.336,64-85.336H415.109z M320,80c0-2.18-0.109-4.344-0.328-6.469C327.5,64.438,339.094,58.664,352,58.664 c23.531,0,42.672,19.141,42.672,42.672c0,3.68-0.484,7.25-1.359,10.664H384c0-5.891-4.781-10.664-10.672-10.664 s-10.656,4.773-10.656,10.664h-51.25C316.875,102.586,320,91.664,320,80z M256,37.336C256,43.227,260.781,48,266.672,48 c4.062,0,7.609-2.281,9.406-5.633C289.5,49.555,298.672,63.727,298.672,80c0,12.734-5.625,24.18-14.5,32h-56.344 c-8.875-7.82-14.5-19.266-14.5-32C213.328,56.477,232.469,37.336,256,37.336z M123.625,100.391 c1.344,0.602,2.812,0.945,4.375,0.945c5.891,0,10.672-4.781,10.672-10.672c0-1.555-0.344-3.031-0.953-4.367 C144.219,82.305,151.844,80,160,80c14.125,0,26.656,6.906,34.438,17.508c1.453,5.125,3.531,9.977,6.141,14.492h-81.891 C119.75,107.852,121.438,103.953,123.625,100.391z M361.594,283.75c13.718,13.719,24.5,29.688,32.015,47.469 c7.781,18.391,11.719,37.938,11.719,58.125c0,17.281-2.922,34.203-8.688,50.312c-4.453,12.438-10.516,24.188-18.078,35H133.438 c-7.562-10.812-13.625-22.562-18.078-35c-5.766-16.109-8.688-33.031-8.688-50.312c0-20.188,3.938-39.734,11.719-58.125 c7.516-17.781,18.297-33.75,32.016-47.469c13.719-13.734,29.688-24.5,47.469-32.023C216.281,243.945,235.828,240,256,240 s39.719,3.945,58.125,11.727C331.906,259.25,347.875,270.016,361.594,283.75z M192,231.086v-33.75c41.406,0,86.594,0,128,0v33.75 c-19.766-8-41.359-12.422-64-12.422S211.766,223.086,192,231.086z M483.703,148.008c-3.422,8.859-7.859,15.68-13.141,20.289 C464.594,173.477,457.219,176,448,176H64c-9.219,0-16.594-2.523-22.562-7.703c-5.281-4.609-9.719-11.43-13.141-20.289 c-1.922-4.961-3.312-10-4.328-14.672h464.062C487.016,138.008,485.625,143.047,483.703,148.008z"/></g></g></svg>